<svg width="171" height="60" viewBox="0 0 171 60" fill="none" xmlns="http://www.w3.org/2000/svg">
<path d="M61.28 44V18.24H74.32C76.9067 18.24 78.8267 18.8533 80.08 20.08C81.36 21.28 82 22.9867 82 25.2C82 26.5867 81.7333 27.7467 81.2 28.68C80.6667 29.5867 79.9467 30.2933 79.04 30.8C80.24 31.1733 81.1867 31.8 81.88 32.68C82.6 33.5333 82.96 34.8 82.96 36.48C82.96 38.96 82.2533 40.84 80.84 42.12C79.4533 43.3733 77.44 44 74.8 44H61.28ZM66.68 28.92H73.32C74.6267 28.92 75.56 28.64 76.12 28.08C76.68 27.4933 76.96 26.68 76.96 25.64C76.96 24.4933 76.6667 23.64 76.08 23.08C75.52 22.52 74.4667 22.24 72.92 22.24H66.68V28.92ZM66.68 40.04H73.52C74.88 40.04 75.88 39.76 76.52 39.2C77.16 38.64 77.48 37.6533 77.48 36.24C77.48 35.0933 77.16 34.24 76.52 33.68C75.9067 33.12 74.7867 32.84 73.16 32.84H66.68V40.04ZM90.7097 44V18.24H103.07C106.03 18.24 108.203 19.0267 109.59 20.6C110.976 22.1467 111.67 24.24 111.67 26.88C111.67 28.6133 111.216 30.1067 110.31 31.36C109.43 32.6133 108.176 33.52 106.55 34.08C106.976 34.4267 107.31 34.8 107.55 35.2C107.816 35.6 108.083 36.1333 108.35 36.8L111.47 44H105.87L102.83 37.08C102.563 36.4933 102.27 36.08 101.95 35.84C101.63 35.6 101.096 35.48 100.35 35.48H96.1097V44H90.7097ZM96.1097 31H101.67C103.083 31 104.19 30.6933 104.99 30.08C105.79 29.44 106.19 28.3733 106.19 26.88C106.19 25.44 105.843 24.3867 105.15 23.72C104.456 23.0533 103.403 22.72 101.99 22.72H96.1097V31ZM116.839 44L126.679 18.24H132.599L142.399 44H136.799L134.359 37.8H124.879L122.479 44H116.839ZM125.679 33.64H133.559L129.599 23.28L125.679 33.64ZM150.155 44V18.24H168.635V22.44H155.555V29.04H167.155V33.2H155.555V39.84H168.635V44H150.155Z" fill="black"/>
<rect x="2.82843" y="35.3066" width="30.9219" height="30.9219" rx="4" transform="rotate(-45 2.82843 35.3066)" stroke="black" stroke-width="4"/>
<rect x="2.82843" y="25.6934" width="30.9219" height="30.9219" rx="3" transform="rotate(-45 2.82843 25.6934)" stroke="black" stroke-width="4"/>
<path d="M21.1578 15.7597C23.1104 13.807 26.2763 13.807 28.2289 15.7597L42.2781 29.8089L28.2289 43.8581C26.2763 45.8107 23.1104 45.8107 21.1578 43.8581L7.1086 29.8089L21.1578 15.7597Z" fill="black"/>
</svg>
